<?xml version="1.0" encoding="utf-8"?>
<!-- Generator: Adobe Illustrator 19.1.0, SVG Export Plug-In . SVG Version: 6.00 Build 0)  -->
<!DOCTYPE svg PUBLIC "-//W3C//DTD SVG 1.1//EN" "http://www.w3.org/Graphics/SVG/1.1/DTD/svg11.dtd">
<svg version="1.1" id="Layer_1" xmlns="http://www.w3.org/2000/svg" xmlns:xlink="http://www.w3.org/1999/xlink" x="0px" y="0px"
	 viewBox="0 0 403.8 201.6" enable-background="new 0 0 403.8 201.6" xml:space="preserve">
<g>
	<g>
		<rect x="324.7" y="88.3" width="5" height="45"/>
	</g>
	<g>
		<path d="M329.7,102.9l-4.8-1.2c2-7.8,5.6-12.9,10.8-14.9c7.4-3,15,1.7,15.3,1.9l-2.7,4.2c-0.1,0-5.8-3.5-10.8-1.5
			C333.9,92.9,331.3,96.7,329.7,102.9z"/>
	</g>
</g>
<g>
	<g>
		<rect x="194.7" y="48.8" width="5" height="85"/>
	</g>
	<g>
		<path d="M175.5,134.3c-13.4,0-24.2-10.9-24.2-24.2s10.9-24.2,24.2-24.2s24.2,10.9,24.2,24.2S188.9,134.3,175.5,134.3z M175.5,90.8
			c-10.6,0-19.2,8.6-19.2,19.2c0,10.6,8.6,19.2,19.2,19.2s19.2-8.6,19.2-19.2C194.7,99.4,186.1,90.8,175.5,90.8z"/>
	</g>
</g>
<g>
	<g>
		<rect x="251.7" y="84.8" width="5" height="50"/>
	</g>
	<g>
		<path d="M232.5,134.3c-13.4,0-24.2-10.9-24.2-24.2s10.9-24.2,24.2-24.2s24.2,10.9,24.2,24.2S245.9,134.3,232.5,134.3z M232.5,90.8
			c-10.6,0-19.2,8.6-19.2,19.2c0,10.6,8.6,19.2,19.2,19.2s19.2-8.6,19.2-19.2C251.7,99.4,243.1,90.8,232.5,90.8z"/>
	</g>
	<g>
		<path d="M232.5,156.3H230v-5h2.5c10.6,0,19.2-8.6,19.2-19.2v-2.5h5v2.5C256.7,145.4,245.9,156.3,232.5,156.3z"/>
	</g>
</g>
<g>
	<g>
		<path d="M314.9,109.3h-48.8l0.4-2.9c1.8-11.7,12.1-20.6,24-20.6s22.2,8.9,24,20.6L314.9,109.3z M272.2,104.3h36.7
			c-2.5-7.9-9.9-13.5-18.3-13.5S274.6,96.4,272.2,104.3z"/>
	</g>
	<g>
		<path d="M290.5,134.3c-13.4,0-24.2-10.9-24.2-24.2c0-1.2,0.1-2.4,0.3-3.6l0.3-2.1h47.4v5h-42.9c0,0.2,0,0.5,0,0.7
			c0,10.6,8.6,19.2,19.2,19.2c6.9,0,13.2-3.7,16.7-9.6l1.2-2.2l4.3,2.5l-1.2,2.2C307.2,129.6,299.2,134.3,290.5,134.3z"/>
	</g>
</g>
<g>
	<g>
		<path d="M144.9,109.3H96.1l0.4-2.9c1.8-11.7,12.1-20.6,24-20.6s22.2,8.9,24,20.6L144.9,109.3z M102.2,104.3h36.7
			c-2.5-7.9-9.9-13.5-18.3-13.5S104.7,96.4,102.2,104.3z"/>
	</g>
	<g>
		<path d="M120.5,134.3c-13.4,0-24.2-10.9-24.2-24.2c0-1.2,0.1-2.4,0.3-3.6l0.3-2.1h47.4v5h-42.9c0,0.2,0,0.5,0,0.7
			c0,10.6,8.6,19.2,19.2,19.2c6.9,0,13.2-3.7,16.7-9.6l1.2-2.2l4.3,2.5l-1.2,2.2C137.2,129.6,129.2,134.3,120.5,134.3z"/>
	</g>
</g>
<g>
	<polygon points="95.2,133.3 64.7,133.3 64.7,48.8 69.7,48.8 69.7,128.3 95.2,128.3 	"/>
</g>
<g>
	<path d="M403.8,201.6H0V0h403.8V201.6z M5,196.6h393.8V5H5V196.6z"/>
</g>
</svg>
